<?xml version="1.0" encoding="iso-8859-1"?>
<!-- Uploaded to: SVG Repo, www.svgrepo.com, Generator: SVG Repo Mixer Tools -->
<!DOCTYPE svg PUBLIC "-//W3C//DTD SVG 1.1//EN" "http://www.w3.org/Graphics/SVG/1.1/DTD/svg11.dtd">
<svg height="800px" width="800px" version="1.1" id="Capa_1" xmlns="http://www.w3.org/2000/svg" xmlns:xlink="http://www.w3.org/1999/xlink" 
	 viewBox="0 0 375.01 375.01" xml:space="preserve">
<g>
	<path style="fill:#EF8829;" d="M145.626,340.729c0,10.613,7.573,18.066,18.049,18.066h53.951v-156h-72V340.729z"/>
	<path style="fill:#EF8829;" d="M233.626,358.714c7-2.753,13-9.766,13-17.985V202.795h-13V358.714z"/>
	<g>
		<path style="fill:#84BD93;" d="M207.781,39.552c0.01-0.004,0.019-0.008,0.029-0.011C207.8,39.544,207.79,39.548,207.781,39.552z"
			/>
		<path style="fill:#84BD93;" d="M209.06,39.04c0.024-0.01,0.048-0.02,0.073-0.03C209.109,39.02,209.084,39.03,209.06,39.04z"/>
		<path style="fill:#84BD93;" d="M210.285,38.518c0.078-0.034,0.153-0.067,0.23-0.101C210.438,38.45,210.362,38.484,210.285,38.518z
			"/>
		<path style="fill:#84BD93;" d="M232.501,39.744c-0.132-0.167-0.26-0.34-0.398-0.497C232.24,39.404,232.369,39.577,232.501,39.744z
			"/>
		<path style="fill:#84BD93;" d="M233.257,40.794c0.141,0.216,0.281,0.434,0.414,0.662C233.538,41.228,233.399,41.01,233.257,40.794
			z"/>
		<path style="fill:#84BD93;" d="M234.319,42.685c0.108,0.222,0.224,0.431,0.326,0.663
			C234.543,43.116,234.427,42.907,234.319,42.685z"/>
		<path style="fill:#84BD93;" d="M185.502,36.494c-2.682-2.089-5.449-4.954-8.275-8.838c-8.225-6.064-16.297-5.409-16.401-5.397
			c-0.235,0.023-0.123,0.033-0.358,0.033c-3.564,0-14.841,1.095-14.841,15.189v28.131c0,0.266-0.887,0.532-1.147,0.808
			c5.451-5.796,12.816-9.248,21.056-9.718c3.842-0.216,7.567,0.28,11.169,1.44c3.643-7.294,10.929-12.42,19.693-12.92
			c-0.493,0.029-1.002,0.075-1.486,0.133C191.892,43.461,188.727,40.627,185.502,36.494z"/>
		<path style="fill:#84BD93;" d="M203.188,45.821c-0.042-0.01-0.085-0.015-0.127-0.024C203.103,45.806,203.146,45.81,203.188,45.821
			z"/>
		<path style="fill:#84BD93;" d="M206.723,46.993c-0.207-0.086-0.413-0.172-0.622-0.252
			C206.309,46.82,206.516,46.907,206.723,46.993z"/>
		<path style="fill:#84BD93;" d="M200.191,45.333c-0.253-0.026-0.504-0.05-0.758-0.068
			C199.686,45.283,199.938,45.307,200.191,45.333z"/>
		<path style="fill:#84BD93;" d="M233.916,43.417c-2.786-1.008-5.893-1.132-10.071-0.325c-1.666,0.322-3.409,1.185-5.454,2.1
			c-2.523,1.126-5.52,2.501-9.038,3.122c-0.048-0.028-0.053-0.045-0.101-0.072c1.445,0.822,2.844,1.789,4.114,2.922
			c3.42,3.051,5.838,6.937,7.033,11.25c7.052,3.115,11.242,7.486,13.692,11.94c-0.282-0.513-0.587-1.024-0.917-1.532
			c0.492,0.344,0.204,0.697,0.655,1.055c0.886-0.848,1.796-1.69,1.796-2.483V57.361C235.626,51.841,235.51,47.062,233.916,43.417z"
			/>
		<path style="fill:#84BD93;" d="M206.362,40.061c0.027-0.009,0.054-0.018,0.081-0.027
			C206.416,40.043,206.389,40.052,206.362,40.061z"/>
		<path style="fill:#84BD93;" d="M203.441,39.795c0.003,0,0.005,0,0.008,0C203.447,39.795,203.444,39.795,203.441,39.795z"/>
	</g>
	<g>
		<path style="fill:#CE593F;" d="M204.455,63.547c0.108,0.139,0.192,0.292,0.291,0.437
			C204.647,63.839,204.563,63.686,204.455,63.547z"/>
		<path style="fill:#CE593F;" d="M205.283,64.864c0.095,0.187,0.173,0.382,0.254,0.576C205.456,65.246,205.38,65.051,205.283,64.864
			z"/>
		<path style="fill:#CE593F;" d="M205.856,66.311c0.063,0.213,0.116,0.43,0.163,0.649C205.972,66.74,205.92,66.525,205.856,66.311z"
			/>
		<path style="fill:#CE593F;" d="M154.988,89.177c-1.284-1.087-2.552-2.199-3.796-3.331
			C152.436,86.978,153.705,88.088,154.988,89.177z"/>
		<path style="fill:#CE593F;" d="M212.224,75.344c-4.717-1.619-5.866-4.737-6.001-7.069c-0.017-0.309-0.091-0.603-0.14-0.904
			c-0.382-0.029-0.765-0.044-1.152-0.02c-4.642,0.264-8.171,4.119-8.033,8.773c0.087,2.921-1.528,5.627-4.139,6.939
			c-2.61,1.314-5.746,0.992-8.038-0.82c-3.062-2.422-6.891-3.621-10.782-3.411c-4.379,0.251-8.333,2.029-11.135,5.008
			c-2.219,2.361-3.528,5.347-3.835,8.573c-1.322-1.029-2.631-2.094-3.924-3.186c10.153,8.6,21.372,15.509,31.071,15.638
			c14.267-5.231,26.372-12.785,35.941-20.181C221.183,80.24,218.109,77.365,212.224,75.344z"/>
	</g>
	<g>
		<path style="fill:#FDD44B;" d="M145.1,122.145c5.467-3.677,11.173-6.916,17.368-9.509c-5.637-3.15-11.139-7.317-17.201-12.508
			c0.001,0.001,0.359,0.002,0.359,0.003v21.978C145.626,122.121,145.118,122.133,145.1,122.145z"/>
		<path style="fill:#FDD44B;" d="M140.549,125.034c0.234-0.175,0.483-0.338,0.719-0.512
			C141.032,124.696,140.783,124.859,140.549,125.034z"/>
		<path style="fill:#FDD44B;" d="M136.67,128.083c0.222-0.184,0.46-0.357,0.684-0.54
			C137.131,127.726,136.892,127.899,136.67,128.083z"/>
		<path style="fill:#FDD44B;" d="M133.026,131.264c0.208-0.191,0.435-0.374,0.646-0.565
			C133.461,130.889,133.234,131.072,133.026,131.264z"/>
	</g>
	<path style="fill:#FDD44B;" d="M145.626,162.605v11.19h101V97.401c-13,10.004-30.707,20.123-51.782,25.495
		C167.773,129.798,148.626,150.82,145.626,162.605z M180.634,155.638c-1.403,1.402-3.338,2.205-5.313,2.205
		c-1.973,0-3.919-0.803-5.311-2.205c-1.404-1.404-2.206-3.338-2.206-5.312c0-1.985,0.802-3.919,2.206-5.323
		c1.392-1.393,3.327-2.195,5.311-2.195c1.975,0,3.919,0.802,5.313,2.195c1.404,1.404,2.204,3.338,2.204,5.323
		C182.838,152.3,182.038,154.234,180.634,155.638z M218.149,123.584c1.403-1.393,3.338-2.195,5.322-2.195
		c1.974,0,3.908,0.801,5.311,2.195c1.404,1.403,2.206,3.338,2.206,5.323c0,1.975-0.802,3.908-2.206,5.312
		c-1.403,1.393-3.337,2.205-5.311,2.205c-1.984,0-3.919-0.813-5.322-2.205c-1.394-1.404-2.195-3.338-2.195-5.312
		C215.954,126.922,216.755,124.988,218.149,123.584z M201.662,147.399c1.392-1.404,3.337-2.205,5.311-2.205
		c1.985,0,3.919,0.801,5.313,2.205c1.403,1.403,2.204,3.338,2.204,5.321c0,1.974-0.801,3.909-2.204,5.312
		c-1.394,1.394-3.328,2.195-5.313,2.195c-1.975,0-3.919-0.802-5.311-2.195c-1.403-1.403-2.206-3.338-2.206-5.312
		C199.456,150.737,200.259,148.802,201.662,147.399z"/>
	<path style="fill:#3F2D20;" d="M223.472,121.39c-1.985,0-3.919,0.802-5.323,2.195c-1.394,1.404-2.195,3.338-2.195,5.323
		c0,1.974,0.801,3.908,2.195,5.312c1.404,1.393,3.338,2.205,5.323,2.205c1.974,0,3.908-0.812,5.311-2.205
		c1.403-1.404,2.206-3.338,2.206-5.312c0-1.985-0.803-3.919-2.206-5.323C227.38,122.191,225.446,121.39,223.472,121.39z"/>
	<path style="fill:#3F2D20;" d="M175.321,142.809c-1.984,0-3.919,0.802-5.311,2.195c-1.403,1.403-2.206,3.338-2.206,5.323
		c0,1.974,0.803,3.908,2.206,5.312c1.392,1.402,3.338,2.205,5.311,2.205c1.975,0,3.909-0.803,5.313-2.205
		c1.404-1.404,2.204-3.338,2.204-5.312c0-1.985-0.801-3.919-2.204-5.323C179.24,143.61,177.296,142.809,175.321,142.809z"/>
	<path style="fill:#3F2D20;" d="M206.973,145.194c-1.974,0-3.919,0.801-5.311,2.205c-1.403,1.403-2.206,3.338-2.206,5.322
		c0,1.974,0.803,3.909,2.206,5.312c1.392,1.394,3.337,2.195,5.311,2.195c1.985,0,3.919-0.801,5.313-2.195
		c1.403-1.403,2.204-3.338,2.204-5.312c0-1.984-0.801-3.919-2.204-5.322C210.892,145.995,208.958,145.194,206.973,145.194z"/>
	<path style="fill:#3F2D20;" d="M255.237,57.869c-1.01-0.334-2.05-0.421-3.064-0.324v-0.184c0-13.91-4.077-24.625-11.789-30.987
		c-4.618-3.809-12.89-7.814-26.079-5.263c-3.361,0.65-6.313,1.968-8.917,3.132c-6.639,2.964-9.123,4.072-16.064-5.507
		C175.469-0.389,156.069-0.146,152.801,0.037c-17.657,0.119-29.965,12.513-29.965,30.222V57.54
		c-1.012-0.097-2.049-0.011-3.057,0.321c-3.086,1.013-5.171,3.894-5.171,7.141v275.726c0,18.903,15.267,34.281,34.033,34.281h77.728
		c18.765,0,34.033-15.379,34.033-34.281V65.003C260.401,61.759,258.317,58.886,255.237,57.869z M245.367,340.729
		c0,8.219-5.122,15.232-12.294,17.985V189.126h12.294V340.729z M137.871,30.259c0-14.094,11.625-15.189,15.189-15.189
		c0.235,0,0.472-0.011,0.707-0.033c0.134-0.015,13.512-1.107,23.385,12.52c14.103,19.464,26.79,13.797,34.369,10.413
		c2.046-0.914,3.978-1.777,5.644-2.1c5.971-1.154,10.563-0.448,13.654,2.101c4.017,3.313,6.321,10.381,6.321,19.39v14.034
		c-0.941,0.946-1.971,1.942-3.042,2.96c-2.45-4.454-6.634-8.826-13.686-11.94c-1.195-4.314-3.601-8.199-7.021-11.25
		c-4.699-4.192-10.753-6.309-17.037-5.943c-8.764,0.5-16.093,5.626-19.736,12.92c-3.602-1.16-7.414-1.655-11.256-1.44
		c-8.239,0.471-15.779,3.922-21.23,9.718c-2.063,2.196-3.748,4.647-5.033,7.28c-0.416-0.457-0.826-0.911-1.227-1.362V30.259z
		 M151.193,85.846c0.202-3.439,1.545-6.631,3.891-9.127c2.801-2.979,6.756-4.757,11.135-5.008c3.892-0.209,7.721,0.99,10.782,3.411
		c2.292,1.813,5.428,2.135,8.038,0.82c2.611-1.312,4.226-4.018,4.139-6.939c-0.138-4.654,3.392-8.509,8.033-8.773
		c2.28-0.137,4.469,0.634,6.171,2.153c1.702,1.519,2.712,3.61,2.841,5.891c0.135,2.331,1.284,5.45,6.001,7.069
		c5.884,2.021,8.959,4.897,9.832,9.339c-9.57,7.396-21.674,14.95-35.941,20.181C175.172,104.718,162.29,95.945,151.193,85.846z
		 M138.532,94.584c8.266,7.84,16.178,13.851,23.699,18.053c-12.509,5.237-24.002,13.089-32.588,21.915V85.583
		C132.316,88.461,135.304,91.522,138.532,94.584z M129.643,162.605c2.143-11.785,21.991-32.806,49.063-39.708
		c30.494-7.774,53.301-25.485,66.661-38.404v89.599H129.643V162.605z M129.643,189.126h88.396v170.85h-69.398
		c-10.476,0-18.998-8.634-18.998-19.247V189.126z"/>
</g>
</svg>